<?xml version="1.0" encoding="UTF-8" standalone="no"?>
<!-- Created with Inkscape (http://www.inkscape.org/) -->

<svg
   width="40"
   height="40"
   viewBox="0 0 40 40"
   version="1.1"
   id="svg1"
   xml:space="preserve"
   inkscape:version="1.3 (0e150ed6c4, 2023-07-21)"
   sodipodi:docname="pluginIcon.svg"
   inkscape:export-filename="pluginIcon.svg"
   inkscape:export-xdpi="96"
   inkscape:export-ydpi="96"
   xmlns:inkscape="http://www.inkscape.org/namespaces/inkscape"
   xmlns:sodipodi="http://sodipodi.sourceforge.net/DTD/sodipodi-0.dtd"
   xmlns="http://www.w3.org/2000/svg"
   xmlns:svg="http://www.w3.org/2000/svg"><sodipodi:namedview
     id="namedview1"
     pagecolor="#505050"
     bordercolor="#eeeeee"
     borderopacity="1"
     inkscape:showpageshadow="0"
     inkscape:pageopacity="0"
     inkscape:pagecheckerboard="0"
     inkscape:deskcolor="#505050"
     inkscape:document-units="px"
     inkscape:zoom="22.627417"
     inkscape:cx="20.484"
     inkscape:cy="18.672038"
     inkscape:window-width="2560"
     inkscape:window-height="1351"
     inkscape:window-x="-9"
     inkscape:window-y="-9"
     inkscape:window-maximized="1"
     inkscape:current-layer="layer1"
     showguides="true" /><defs
     id="defs1" /><g
     inkscape:label="background"
     inkscape:groupmode="layer"
     id="layer1"><rect
       style="fill:#008080;stroke-width:0.939229"
       id="rect1"
       width="34.388897"
       height="33.91127"
       x="3.1045554"
       y="2.985147" /><path
       style="fill:#f2f2f2;fill-opacity:1;stroke-width:0.0588458"
       d="m 25.432888,34.646028 c -0.02592,-1.569001 -0.06863,-9.414571 -0.09491,-17.434601 L 25.290202,2.6295533 h 0.799928 0.799926 l 0.04716,2.9436518 c 0.02594,1.6190085 0.06865,9.4645789 0.09492,17.4346009 l 0.04776,14.49095 H 26.279953 25.48002 Z"
       id="path29" /><path
       style="fill:#000000;fill-opacity:1;stroke-width:0.0434676"
       d="M 3.1156892,19.953669 V 3.0273009 H 14.183479 25.251267 l 0.02568,5.1375727 c 0.01413,2.8256654 0.03596,10.2486284 0.04851,16.4954754 0.01256,6.246846 0.03511,11.551805 0.05011,11.788796 l 0.02728,0.430893 H 14.259265 3.1156892 Z"
       id="path30" /><path
       style="fill:#000000;fill-opacity:1;stroke-width:0.0441942"
       d="M 27.097392,32.184407 C 27.082805,29.60181 27.06031,22.268339 27.047405,15.887805 27.0345,9.5072716 27.011088,4.0034397 26.995378,3.6570679 l -0.02856,-0.629767 h 5.243873 5.243873 V 19.953669 36.880038 h -5.165323 -5.165323 z"
       id="path31" /></g></svg>
